# xmcd
# 
# Track frame offsets:
#     150
#     18182
#     34947
#     55320
#     72361
#     93673
#     110035
#     127867
#     147107
#     164683
#     188386
#     206476
#     226892
#     242503
#     259219
#     274233
#     291176
#     309630
#     329143
# 
# Disc length: 4679
# 
# Revision: 0
# Processed by: cddbd v1.5.1PL2 Copyright (c) Steve Scherf et al.
# Submitted via: BonkEnc v1.0beta4
# 
DISCID=1d124513
DTITLE=Various Artist - Ultimate Love
DYEAR=0
DGENRE=Blues
TTITLE0=v.morrison - Have I told you lately
TTITLE1=A wright - When a man loves a woman
TTITLE2=B Adams - All For Love
TTITLE3=b.Steinberg - Eternal Flame
TTITLE4=R.lange - Shania solo
TTITLE5=E clapton - You look wonderful Tonight
TTITLE6=B Taupin - Your Song
TTITLE7=A saint - Up where we belong
TTITLE8=D lewis - I love you always forever
TTITLE9=J steinman - I'd do anything for love
TTITLE10=Mc Kee - Show me Heaven
TTITLE11=D O Riordan - Dreams
TTITLE12=Casta - One Love
TTITLE13=M Martin - As long as you love me
TTITLE14=L Richie - Three times a lady
TTITLE15=R Stewart - Tonights the night
TTITLE16=J Kadison - Beautiful in my eyes
TTITLE17=D Warren - How do i live
TTITLE18=B Adams - Have you ever really loved a woman
EXTD=
EXTT0=
EXTT1=
EXTT2=
EXTT3=
EXTT4=
EXTT5=
EXTT6=
EXTT7=
EXTT8=
EXTT9=
EXTT10=
EXTT11=
EXTT12=
EXTT13=
EXTT14=
EXTT15=
EXTT16=
EXTT17=
EXTT18=
PLAYORDER=
